<svg xmlns="http://www.w3.org/2000/svg" xmlns:xlink="http://www.w3.org/1999/xlink" viewBox="0 0 552.36 418.34"><defs><style>.cls-1{fill:#fff;}.cls-2{fill:url(#radial-gradient);}.cls-3{fill:url(#linear-gradient);}.cls-4{fill:url(#linear-gradient-2);}.cls-5{fill:#212e57;}</style><radialGradient id="radial-gradient" cx="278.48" cy="209.17" r="192.67" gradientUnits="userSpaceOnUse"><stop offset="0" stop-color="#fb6a1f"/><stop offset="0.47" stop-color="#fb6821"/><stop offset="0.7" stop-color="#fc6229"/><stop offset="0.88" stop-color="#fc5736"/><stop offset="0.99" stop-color="#fd4d43"/></radialGradient><linearGradient id="linear-gradient" x1="302.72" y1="323.49" x2="254.05" y2="50.08" xlink:href="#radial-gradient"/><linearGradient id="linear-gradient-2" x1="258" y1="105.74" x2="303.89" y2="379.63" xlink:href="#radial-gradient"/></defs><title>LastPrice-white</title><g id="Layer_2" data-name="Layer 2"><g id="Layer_3" data-name="Layer 3"><path class="cls-1" d="M552.36,249.4,534.49,103.89l-78.27,9.61c-.41-1.8-.75-3.79-1.11-5.89-1.15-6.85-2.46-14.61-7.4-21.4s-12-10.46-18.14-13.67c-3.62-1.89-7-3.66-8.92-5.54s-3.66-5.3-5.54-8.92c-3.21-6.18-6.85-13.18-13.66-18.14s-14.56-6.25-21.4-7.4c-4.05-.68-7.86-1.33-10.27-2.56s-5.06-3.87-7.94-6.7c-5-4.91-10.63-10.47-18.71-13.09a33.68,33.68,0,0,0-10.56-1.56,80.17,80.17,0,0,0-12,1.16,61.16,61.16,0,0,1-8.51.91,13.54,13.54,0,0,1-2.14-.15c-2.54-.4-5.93-2.09-9.52-3.88C294.14,3.54,287,0,278.48,0s-15.66,3.54-21.93,6.67c-3.59,1.79-7,3.48-9.52,3.88a13.67,13.67,0,0,1-2.15.15,61.19,61.19,0,0,1-8.5-.91,80.17,80.17,0,0,0-12-1.16,33.68,33.68,0,0,0-10.56,1.56c-8.08,2.62-13.73,8.18-18.71,13.08-2.88,2.84-5.61,5.52-8,6.72s-6.22,1.87-10.26,2.55c-6.84,1.15-14.6,2.46-21.39,7.4s-10.46,12-13.67,18.14c-1.88,3.61-3.66,7-5.55,8.92s-5.29,3.66-8.91,5.54c-6.18,3.21-13.17,6.85-18.14,13.67s-6.25,14.55-7.4,21.4c-.68,4-1.33,7.86-2.55,10.26s-3.88,5.06-6.72,7.94c-1.42,1.44-2.89,2.94-4.33,4.54l-.92-.65a23.8,23.8,0,0,0-13.43-4,27.73,27.73,0,0,0-3.27.2,24,24,0,0,0-12.78,5.57,20.58,20.58,0,0,0-8.6-2.52l-1.13-9.2-29.19,3.58.23,1.84L2,127.23l.9,7.3L0,134.89l3.47,28.23,2.93-.36A21.43,21.43,0,0,0,8,168.53l-3.17.39L22.73,314.43l78-9.57c.41,1.79.75,3.77,1.1,5.86,1.16,6.85,2.46,14.62,7.41,21.41s12,10.46,18.14,13.67c3.62,1.88,7,3.66,8.91,5.54s3.66,5.3,5.54,8.92c3.21,6.18,6.85,13.18,13.68,18.14s14.55,6.25,21.39,7.4c4,.68,7.86,1.33,10.27,2.56s5.06,3.87,7.94,6.71c5,4.9,10.63,10.46,18.7,13.08a33.72,33.72,0,0,0,10.56,1.56,80.3,80.3,0,0,0,12-1.16,61.19,61.19,0,0,1,8.5-.91,13.67,13.67,0,0,1,2.15.15c2.53.4,5.93,2.09,9.52,3.88,6.27,3.13,13.38,6.67,21.93,6.67s15.66-3.54,21.93-6.67c3.59-1.79,7-3.48,9.52-3.88a13.54,13.54,0,0,1,2.14-.15,61.16,61.16,0,0,1,8.51.91,80.17,80.17,0,0,0,12,1.16h0a33.57,33.57,0,0,0,10.55-1.56c8.09-2.62,13.74-8.18,18.72-13.08,2.88-2.84,5.61-5.52,7.94-6.72S376,386.48,380,385.8c6.85-1.15,14.61-2.46,21.4-7.4s10.46-12,13.67-18.14c1.88-3.62,3.66-7,5.54-8.92s5.3-3.65,8.91-5.53c6.18-3.22,13.19-6.86,18.14-13.67s6.26-14.56,7.41-21.41c.68-4,1.32-7.85,2.55-10.26s3.88-5.06,6.72-8c4.9-5,10.46-10.62,13.08-18.69a37.88,37.88,0,0,0,1.32-15.39Z"/><path class="cls-2" d="M466.42,257.88l-23.17,2.85A172.66,172.66,0,0,1,131.1,299.05l-18.61,2.29c2,8,2,17.24,6.66,23.59,5.95,8.18,18.67,10.62,25.81,17.76s9.58,19.86,17.76,25.81,21,4.34,30,8.95,15.19,15.92,24.87,19.06c9.51,3.09,21.22-2.4,31.32-.81,9.83,1.54,19.28,10.4,29.55,10.4s19.72-8.86,29.55-10.4c10.1-1.59,21.81,3.9,31.32.81,9.68-3.14,15.92-14.49,24.86-19.06s21.89-3,30-8.95,10.62-18.68,17.76-25.81,19.86-9.58,25.81-17.76,4.34-21,8.95-30,15.92-15.19,19.06-24.87C467.05,266.26,466.92,262.12,466.42,257.88ZM278.48,36.56A172.49,172.49,0,0,1,425.87,119.3l18.6-2.28c-2-8-2-17.26-6.65-23.61-6-8.18-18.69-10.62-25.82-17.76s-9.58-19.86-17.76-25.81-21-4.34-30-9S349,25,339.35,21.83c-9.51-3.09-21.22,2.4-31.32.81-9.83-1.54-19.28-10.4-29.55-10.4s-19.72,8.86-29.55,10.4c-10.1,1.59-21.81-3.9-31.32-.81-9.68,3.14-15.93,14.49-24.87,19.06s-21.88,3-30,9S152.1,68.52,145,75.65s-19.86,9.58-25.81,17.76-4.34,21-9,30S94.28,138.62,91.14,148.3c-1.23,3.79-1.11,7.93-.6,12.18l23.16-2.85A172.68,172.68,0,0,1,278.48,36.56Z"/><path class="cls-3" d="M408.64,121.41l-277.71,34.1a157,157,0,0,1,277.71-34.1Z"/><path class="cls-4" d="M426,262.84a157,157,0,0,1-277.71,34.1Z"/><path class="cls-5" d="M21.94,148.52l1.45,11.79a3.89,3.89,0,0,0,1.2,2.54,3.14,3.14,0,0,0,2.57.68,4.17,4.17,0,0,0,2.82-1.9l2.44,3.21a8.41,8.41,0,0,1-5.42,3,7.35,7.35,0,0,1-5.6-1.51,7.86,7.86,0,0,1-2.92-5.56l-1.43-11.66-2.93.36-.48-3.94,2.93-.36-.9-7.29,4.89-.6.9,7.29,6.12-.75.48,3.94Z"/><path class="cls-5" d="M39.9,153.14l1.54,12.59-4.89.6-4-32.38,4.9-.6,1.64,13.37A7.81,7.81,0,0,1,41.86,143a9.05,9.05,0,0,1,4.42-1.79,8.72,8.72,0,0,1,6.65,1.62c1.81,1.41,2.91,3.63,3.28,6.65L58,163.7l-4.9.6L51.5,151.54q-.8-6.42-6.12-5.77A6.47,6.47,0,0,0,41.17,148,6.29,6.29,0,0,0,39.9,153.14Z"/><path class="cls-5" d="M85.23,150.72,67,153a5.32,5.32,0,0,0,2.81,3.8,9.07,9.07,0,0,0,11.39-2.62l3.17,2.72A13.09,13.09,0,0,1,75.08,162a11.73,11.73,0,0,1-8.72-2.23,11.59,11.59,0,0,1-4.5-8.32,11.41,11.41,0,0,1,2.42-9.15A11.84,11.84,0,0,1,72.12,138a12,12,0,0,1,8.41,1.87,9.94,9.94,0,0,1,4.29,7.48Zm-18.69-1.6,13.33-1.64a5.63,5.63,0,0,0-2.39-4.27,6.73,6.73,0,0,0-4.71-1,7.79,7.79,0,0,0-4.63,2.23A5.34,5.34,0,0,0,66.54,149.12Z"/><rect class="cls-5" x="24.05" y="148.1" width="509.13" height="122.13" transform="translate(-23.41 35.51) rotate(-7)"/><path class="cls-1" d="M33.69,200.89l17.52-2.15,7.54,61.41,38-4.66,1.75,14.27L43,276.58Z"/><path class="cls-1" d="M152.15,229.48l4.07,33.19-15.78,1.94-.89-7.24c-2.49,5.68-8.19,9.23-16.74,10.28-13.62,1.67-22.66-4.9-23.89-14.95-1.26-10.27,5.11-18.3,22.84-20.48l13.4-1.64c-.89-7.25-5.73-10.93-14.81-9.82-6.16.76-12.29,3.6-16.1,7.47l-7.5-11c5.82-5.33,14.93-9,24.22-10.11C138.7,204.9,150,211.86,152.15,229.48ZM137.1,246.36l-.73-5.94-11.57,1.42c-7.89,1-10,4.19-9.54,8.08.52,4.22,4.43,6.59,10.38,5.86C131.26,255.09,135.81,251.9,137.1,246.36Z"/><path class="cls-1" d="M160.21,256.7l4.13-12.8c5.6,2.71,13.77,4,20.91,3.14,7.78-1,10.45-3.37,10.05-6.62-1.17-9.51-35.11,4.53-38-18.71-1.36-11,7.63-20,24.61-22.12,8-1,17.09-.23,23,2.34l-4.15,12.69a33.66,33.66,0,0,0-17.29-2.27c-7.56.93-10.52,3.71-10.14,6.73,1.22,9.95,35.17-4,38,18.93,1.33,10.81-7.79,19.73-25.19,21.86C176.33,261.08,166.05,259.6,160.21,256.7Z"/><path class="cls-1" d="M258.09,247.31c-3.16,2.91-8.09,4.73-13.28,5.36-13.73,1.69-22.6-4.36-24.3-18.2l-2.93-23.89-9,1.1-1.6-13,9-1.1-1.74-14.17,16.86-2.07,1.74,14.17,14.49-1.78,1.59,13-14.49,1.78,2.91,23.68c.61,5,3.65,7.34,8.19,6.78a11.37,11.37,0,0,0,6.54-3Z"/><path class="cls-1" d="M324.86,193c2.07,16.86-9.29,28.91-29.51,31.39l-15.24,1.87,2.56,20.87-17.52,2.15-9.29-75.68,32.76-4C308.84,167.11,322.77,176,324.86,193Zm-17.73,2.18c-1-8.33-7-12.53-17.73-11.22l-14.27,1.76L278.35,212l14.28-1.75C303.33,208.94,308.14,203.41,307.13,195.2Z"/><path class="cls-1" d="M364.92,177.13l1.91,15.56c-1.42.07-2.52.09-3.81.25-9.3,1.14-14.84,7-13.47,18.12l3.37,27.46-16.87,2.07-7.14-58.17,16.11-2,.94,7.67C349.38,182,355.94,178.23,364.92,177.13Z"/><path class="cls-1" d="M398.24,203.6c-2.15-17.52,9.84-31.61,28.76-33.93,12.22-1.5,22.49,2.61,27.87,11.61l-12.22,8.63c-3.81-5.13-8.76-7-14.06-6.39-8.54,1-14.52,7.82-13.27,18s8.68,15.28,17.23,14.24c5.29-.65,9.65-3.6,12.09-9.61l14,5.53c-3.07,9.81-12,16.4-24.25,17.9C415.43,231.88,400.39,221.11,398.24,203.6Z"/><path class="cls-1" d="M518,193.72l-44,5.41c2.51,7,9.22,10.72,18.09,9.63,6.16-.76,10.37-3.14,13.9-7.41L516.12,210c-4.65,6.83-12.36,11.07-22.85,12.36-20.11,2.47-34.74-8.58-36.87-25.88s9.63-31.58,27.36-33.75c17.08-2.1,31.68,7.74,34,26.44C517.89,190.44,517.9,192.31,518,193.72Zm-45.43-4.4,28.65-3.52c-2.09-7.21-8.19-11.29-15.76-10.36S472.81,181.71,472.54,189.32Z"/><path class="cls-1" d="M387,177.61l-6.17-1.88a2.63,2.63,0,0,0-2.1.26l-5.52,3.31a2.59,2.59,0,0,0-1.25,2.55l6.27,51.1a2.62,2.62,0,0,0,2.91,2.27l11.69-1.44a2.62,2.62,0,0,0,2.27-2.91l-6.28-51.09A2.59,2.59,0,0,0,387,177.61ZM381,184.76a3.14,3.14,0,1,1,2.73-3.5A3.14,3.14,0,0,1,381,184.76Z"/></g></g></svg>