<svg id="Layer_1" data-name="Layer 1" xmlns="http://www.w3.org/2000/svg" viewBox="0 0 287.03 430.68"><defs><style>.cls-1{fill:none;}.cls-2{fill:#231f20;}.cls-3{fill:#fc4a1a;}.cls-4{fill:#fff;}</style></defs><title>price-tag</title><path class="cls-1" d="M333.84,117.27a417.9,417.9,0,0,1-36.27,23.11,42.24,42.24,0,0,1-72.63,28.29l-.29-.29s0-.07-.07-.1A42.28,42.28,0,1,1,297,132.16c10-5.78,20.65-12.53,31.7-20.34L283.26,63.93c-8.57-9-17.92-13.56-27.29-13.49C241,50.57,229.4,62,227.76,63.67L125.52,171.48l-5.44,5.74V463.14H390.7V177.22l-5.44-5.74Zm14.44,283.94H162.33a3.7,3.7,0,0,1,0-7.39H348.28a3.7,3.7,0,0,1,0,7.39Zm0-48.54H162.33a3.7,3.7,0,0,1,0-7.39H348.28a3.7,3.7,0,0,1,0,7.39Zm0-50.58H162.33a3.7,3.7,0,0,1,0-7.39H348.28a3.7,3.7,0,0,1,0,7.39Z" transform="translate(-111.87 -40.66)"/><path class="cls-2" d="M119.28,178.06l-.29.3C119.1,178.48,119.19,178.33,119.28,178.06Z" transform="translate(-111.87 -40.66)"/><path class="cls-3" d="M255.31,104.33A34.89,34.89,0,0,0,228.82,162c6.6-1.29,30.11-8.74,61.25-25.91A35,35,0,0,0,255.31,104.33Z" transform="translate(-111.87 -40.66)"/><path class="cls-3" d="M235.37,167.9a34.84,34.84,0,0,0,54.4-23.2c-5.5,3-10.62,5.52-15.27,7.75A288.59,288.59,0,0,1,241.29,166C239,166.81,237,167.41,235.37,167.9Z" transform="translate(-111.87 -40.66)"/><path class="cls-2" d="M391.51,178.08l.31.33-.49-.53C391.39,178.1,391.45,178.21,391.51,178.08Z" transform="translate(-111.87 -40.66)"/><path class="cls-4" d="M398.6,174.07a4.51,4.51,0,0,0-.52-.82,3.58,3.58,0,0,0-.3-.49l-57.24-60.35a440.06,440.06,0,0,0,35.57-29.36c17.84-16.37,24.1-27.55,19.7-35.19-10.43-18.08-83,2.68-106.9,10.12C281,49.74,272.41,44.82,263.45,43c-7.44-1.82-16.44.33-16.44.33C233.34,46.62,223.74,56,221.83,58l-.22.23L113,172.76a3.66,3.66,0,0,0-.31.49,4,4,0,0,0-.51.82,4.13,4.13,0,0,0-.19.94,3.61,3.61,0,0,0-.12.57V467.24a4.1,4.1,0,0,0,4.1,4.1H394.8a4.09,4.09,0,0,0,4.1-4.1V175.58a5.22,5.22,0,0,0-.11-.57A4.75,4.75,0,0,0,398.6,174.07ZM389.41,51.55c.58,1,2.44,7-18.3,26.05A430.77,430.77,0,0,1,335.39,107L294.6,64C337.22,51.06,384.37,42.81,389.41,51.55ZM119,178.36l.29-.3C119.19,178.33,119.1,178.48,119,178.36Zm271.71,1.32V463.14H120.08V177.22l5.44-5.74L227.76,63.67C229.4,62,241,50.57,256,50.44c9.37-.07,18.72,4.46,27.29,13.49l45.42,47.89c-11.05,7.81-21.71,14.56-31.7,20.34a42.29,42.29,0,1,0-72.4,36.12s0,.07.07.1l.29.29a42.24,42.24,0,0,0,72.63-28.29,417.9,417.9,0,0,0,36.27-23.11l51.42,54.21,5.44,5.74ZM228.82,162a34.91,34.91,0,1,1,61.25-25.91C258.93,153.23,235.42,160.68,228.82,162Zm60.95-17.27a34.84,34.84,0,0,1-54.4,23.2c1.67-.49,3.6-1.09,5.92-1.86a288.59,288.59,0,0,0,33.21-13.59C279.15,150.22,284.27,147.65,289.77,144.7Zm101.74,33.38c-.06.13-.12,0-.18-.2l.49.53Z" transform="translate(-111.87 -40.66)"/><path class="cls-4" d="M348.28,294.7H162.33a3.7,3.7,0,0,0,0,7.39H348.28a3.7,3.7,0,0,0,0-7.39Z" transform="translate(-111.87 -40.66)"/><path class="cls-4" d="M348.28,345.28H162.33a3.7,3.7,0,0,0,0,7.39H348.28a3.7,3.7,0,0,0,0-7.39Z" transform="translate(-111.87 -40.66)"/><path class="cls-4" d="M348.28,393.82H162.33a3.7,3.7,0,0,0,0,7.39H348.28a3.7,3.7,0,0,0,0-7.39Z" transform="translate(-111.87 -40.66)"/></svg>